HIERARCHY
ROOT hip
{
	OFFSET 0.000000 0.000000 0.000000 
	CHANNELS 6 Xposition Yposition Zposition Xrotation Zrotation Yrotation
	JOINT abdomen
	{
		OFFSET 0.000000 3.402643 0.000000 
		CHANNELS 3 Xrotation Zrotation Yrotation
		JOINT chest
		{
			OFFSET 0.000000 8.438565 -0.680529 
			CHANNELS 3 Xrotation Zrotation Yrotation
			JOINT neck
			{
				OFFSET 0.000000 10.207942 -0.272212 
				CHANNELS 3 Xrotation Zrotation Yrotation
				JOINT head
				{
					OFFSET 0.000000 3.130431 0.000000 
					CHANNELS 3 Xrotation Zrotation Yrotation
					End Site
					{
						OFFSET 0.000000 3.130435 0.000000 
					}
				}
			}
			JOINT lCollar
			{
				OFFSET 3.470700 6.669187 -0.816635 
				CHANNELS 3 Yrotation Zrotation Xrotation
				JOINT lShldr
				{
					OFFSET 3.198488 0.000000 0.000000 
					CHANNELS 3 Zrotation Yrotation Xrotation
					JOINT lForeArm
					{
						OFFSET 10.139888 0.000000 0.000000 
						CHANNELS 3 Yrotation Zrotation Xrotation
						JOINT lHand
						{
							OFFSET 8.370511 0.000000 0.000000 
							CHANNELS 3 Zrotation Yrotation Xrotation
							End Site
							{
								OFFSET 4.083176 0.000000 0.000000 
							}
						}
					}
				}
			}
			JOINT rCollar
			{
				OFFSET -3.470700 6.669187 -0.816635 
				CHANNELS 3 Yrotation Zrotation Xrotation
				JOINT rShldr
				{
					OFFSET -3.198488 0.000000 0.000000 
					CHANNELS 3 Zrotation Yrotation Xrotation
					JOINT rForeArm
					{
						OFFSET -10.139888 0.000000 0.000000 
						CHANNELS 3 Yrotation Zrotation Xrotation
						JOINT rHand
						{
							OFFSET -8.370511 0.000000 0.000000 
							CHANNELS 3 Zrotation Yrotation Xrotation
							End Site
							{
								OFFSET -4.083176 0.000000 0.000000 
							}
						}
					}
				}
			}
		}
	}
	JOINT lThigh
	{
		OFFSET 5.308129 -1.633274 1.361059 
		CHANNELS 3 Xrotation Zrotation Yrotation
		JOINT lShin
		{
			OFFSET -2.041588 -20.007561 0.000000 
			CHANNELS 3 Xrotation Zrotation Yrotation
			JOINT lFoot
			{
				OFFSET 0.000000 -19.190928 -1.224953 
				CHANNELS 3 Xrotation Yrotation Zrotation
				End Site
				{
					OFFSET 0.000000 -2.449906 4.627600 
				}
			}
		}
	}
	JOINT rThigh
	{
		OFFSET -5.308129 -1.633274 1.361059 
		CHANNELS 3 Xrotation Zrotation Yrotation
		JOINT rShin
		{
			OFFSET 2.041588 -20.007561 0.000000 
			CHANNELS 3 Xrotation Zrotation Yrotation
			JOINT rFoot
			{
				OFFSET 0.000000 -19.190928 -1.224953 
				CHANNELS 3 Xrotation Yrotation Zrotation
				End Site
				{
					OFFSET 0.000000 -2.449906 4.627600 
				}
			}
		}
	}
}
MOTION
Frames: 8
Frame Time: 0.033333
19.852322 48.827271 5.670223 24.904325 9.986314 -110.307716 0.000000 0.000000 0.000000 10.480349 -6.598057 -2.556460 14.147582 -5.630983 -18.440622 6.433611 28.098152 -21.499975 -6.171149 -7.350676 9.246356 -58.174072 -2.648686 -12.225919 -69.930046 -1.771355 -8.254876 7.091131 4.113096 -3.461491 1.602221 -2.296887 9.998136 57.253754 -18.842585 -11.516890 63.596882 6.335762 -7.164757 -5.965525 -5.085665 -3.440319 -17.994171 22.963205 4.561941 33.875027 6.453228 6.632209 -14.017061 0.279124 -2.252135 -20.291451 -18.084391 -4.848859 52.989254 -3.027238 -2.195220 -4.008083 0.117421 -3.665899 
19.669979 48.930717 5.983676 24.534807 9.059392 -112.030624 0.000000 0.000000 0.000000 10.387677 -6.398200 -3.153018 14.676058 -4.781211 -21.294966 6.177306 26.668837 -23.196913 -6.460930 -5.967229 9.147585 -64.001854 0.337479 -9.522148 -77.998924 -2.078226 -12.124908 10.768902 4.032162 -3.443264 0.787318 -1.548684 9.789265 56.098476 -18.814669 -13.141035 66.036835 6.379062 -8.534774 -6.462772 -4.775965 -3.444719 -16.068878 22.462650 3.448008 33.980015 7.331268 -1.095682 -13.507733 0.140037 -1.217425 -20.229893 -18.833099 -4.805899 53.915039 -3.330013 -2.066913 -4.083869 0.133359 -3.744735 
19.502478 48.723072 6.315549 24.361107 8.115431 -113.890816 0.000000 0.000000 0.000000 10.366739 -5.831643 -3.379740 14.996902 -4.237357 -23.335211 5.040870 26.303604 -25.297522 -7.334490 -3.787565 9.146762 -69.998291 1.817533 -5.812281 -84.968529 -2.399181 -19.099180 10.319099 5.302724 -3.354679 0.175631 -1.036764 9.706637 55.701355 -18.510952 -16.017006 69.056480 6.598258 -9.929313 -7.136229 -4.889331 -3.432926 -13.183144 21.698112 2.312018 32.871868 8.440104 -8.035892 -15.585001 0.032389 -0.412003 -20.622442 -19.518749 -4.450021 55.280991 -3.701013 -1.810632 -4.080683 0.131696 -3.766590 
19.364933 48.299988 6.692033 24.510368 7.499421 -116.506386 0.000000 0.000000 0.000000 10.242197 -4.853433 -3.454134 15.166630 -3.982040 -24.313835 4.232033 25.189556 -26.401886 -7.427296 -2.134953 9.163339 -75.412025 2.169750 -0.828219 -91.498421 -2.238898 -25.794079 14.053958 4.697751 -3.347692 -0.073263 -0.695974 9.589739 55.142479 -17.796354 -18.163979 72.893150 6.706013 -12.868979 -8.011018 -5.046107 -3.411673 -10.281647 21.138872 2.733912 32.045422 8.535243 -8.365111 -18.876804 0.019714 -0.178030 -21.607405 -19.585966 -3.542777 56.413422 -4.101326 -1.164431 -4.143187 0.129698 -3.831672 
19.337624 47.921703 7.007810 25.038347 6.740004 -119.879478 0.000000 0.000000 0.000000 10.379589 -4.188386 -2.866144 15.653938 -3.745428 -24.110161 3.523617 24.563072 -26.861635 -7.359749 -1.069530 9.405039 -79.120491 0.364590 4.796180 -95.204979 -1.696435 -27.583422 14.390073 5.162902 -3.279433 0.564550 0.245250 9.755787 54.304623 -16.928051 -19.992844 76.173996 6.958760 -15.193795 -8.001204 -4.047055 -3.470528 -9.355330 21.072969 3.862811 35.249943 7.764270 -6.010982 -20.263220 -0.075850 0.346741 -22.436863 -18.472725 -2.177893 56.585632 -4.726284 -1.943348 -4.181704 0.156432 -3.905562 
19.485743 47.765659 7.381456 24.205235 6.239906 -122.173058 0.000000 0.000000 0.000000 10.317682 -4.660080 -2.878992 15.840940 -3.954872 -24.216326 3.592823 25.500586 -26.907394 -7.604687 -1.107992 9.262552 -80.301239 -4.141356 11.073256 -97.303177 -1.121209 -32.788021 16.531223 9.297266 -2.730070 0.404772 0.421545 9.653112 55.754173 -14.964137 -22.079941 79.506287 7.321795 -18.055254 -9.136127 -4.114640 -3.451368 -9.000812 20.235481 4.626602 35.881847 6.797165 -2.926797 -20.234373 -0.019712 0.021819 -23.661047 -18.719879 -2.054462 55.737095 -4.687222 -2.221105 -3.994272 0.124640 -3.789698 
19.429363 47.757477 7.599953 24.587980 6.417036 -124.005745 0.000000 0.000000 0.000000 10.085735 -4.182636 -3.048109 15.447436 -3.539398 -23.735868 5.240561 26.181581 -26.102732 -7.777476 -0.614325 9.109550 -79.653053 -9.730152 17.248713 -97.825714 -0.501534 -35.137352 14.922372 10.519307 -2.641425 0.263597 1.557151 9.415070 58.294518 -13.454477 -23.576620 83.632271 7.622609 -21.385349 -10.368182 -4.327195 -3.426902 -8.144375 20.887304 6.062463 36.068245 6.035913 -2.727520 -20.457613 -0.106880 0.586084 -23.405579 -17.859201 -3.046429 53.700230 -3.691246 -1.924592 -3.635191 0.110419 -3.611747 
19.323786 47.983120 7.775390 25.489990 5.972685 -125.538002 0.000000 0.000000 0.000000 10.267255 -3.824667 -3.124307 16.071218 -2.944857 -23.514555 6.586582 26.392111 -25.464846 -8.177808 -0.639349 9.303113 -78.284866 -15.639334 22.098934 -96.379463 -0.180874 -35.585896 11.718358 8.171954 -3.075799 0.049943 2.927118 9.565086 60.807598 -12.045404 -23.345175 87.282578 7.473692 -23.538088 -10.803650 -4.230392 -3.437266 -5.615867 21.748644 8.242252 34.571968 5.142464 -3.207326 -19.885717 -0.234306 1.304077 -21.619070 -17.097809 -4.744257 50.763355 -2.480415 -2.270827 -3.338092 0.108637 -3.524717 
